<?xml version="1.0" encoding="utf-8"?>
<!-- Generator: Adobe Illustrator 23.0.2, SVG Export Plug-In . SVG Version: 6.00 Build 0)  -->
<svg version="1.1" id="nest" xmlns="http://www.w3.org/2000/svg" xmlns:xlink="http://www.w3.org/1999/xlink" x="0px" y="0px"
	 viewBox="0 0 85 34" style="enable-background:new 0 0 85 34;" xml:space="preserve">
<style type="text/css">
	.st0{fill:#FFFFFF;}
</style>
<g>
	<path class="st0" d="M25.4,17.9l-2.1,10.6c-0.1,0.2-0.2,0.4-0.4,0.4h-2.6c-0.3,0-0.5-0.3-0.4-0.5L22,18c0.1-0.6,0.2-1.2,0.2-1.6
		c0-2.5-1.5-3.9-4.5-3.9c-3.8,0-6.3,2-7.1,6.3l-2,10c-0.1,0.2-0.2,0.4-0.4,0.4H5.5c-0.3,0-0.5-0.3-0.4-0.5l3.6-19
		c0.1-0.2,0.2-0.4,0.4-0.4h2.5c0.3,0,0.5,0.3,0.4,0.5l-0.2,0.8c0,0.4,0.4,0.7,0.7,0.5c1.7-1.3,3.8-1.9,6.1-1.9c4.4,0,7,2.3,7,6.5
		C25.6,16.3,25.5,17.1,25.4,17.9z"/>
	<path class="st0" d="M65.6,11.3l-1,2c-0.1,0.3-0.4,0.3-0.6,0.2c-1.5-0.9-3.5-1.3-5.3-1.3c-3.3,0-4.9,1.2-4.9,2.9
		c0,3.9,10.7,1.2,10.7,7.7c0,4-3.6,6.4-8.9,6.4c-3.1,0-6-0.9-7.6-2c-0.2-0.1-0.2-0.4-0.1-0.6l1.2-2c0.1-0.2,0.4-0.3,0.6-0.2
		c1.5,1.1,3.9,1.7,6.3,1.7c3.4,0,5.1-1.1,5.1-2.9c0-3.8-10.7-1.1-10.7-7.7c0-3.8,3.5-6.4,8.7-6.4c2.4,0,4.8,0.6,6.4,1.6
		C65.7,10.8,65.7,11,65.6,11.3z"/>
	<path class="st0" d="M80,9.8l-0.4,2c-0.1,0.2-0.2,0.4-0.4,0.4h-4.8c-0.2,0-0.4,0.2-0.4,0.4l-2,10c-0.1,0.4-0.1,0.7-0.1,1
		c0,1.5,0.8,2.4,2.5,2.4c0.8,0,1.6-0.2,2.3-0.6c0.3-0.2,0.6,0,0.6,0.3l0.5,1.8c0.1,0.2,0,0.4-0.2,0.5c-1.3,0.8-2.8,1.1-4.2,1.1
		c-3,0-5.1-1.8-5.1-4.8c0-0.5,0.1-1,0.2-1.5l3.4-17.2c0.1-0.2,0.2-0.4,0.4-0.4h2.6c0.3,0,0.5,0.3,0.4,0.5l-0.7,3.2
		c-0.1,0.3,0.2,0.5,0.4,0.5h4.5C79.9,9.3,80.1,9.5,80,9.8z"/>
	<path class="st0" d="M39.1,9.1c-6.3,0-10.9,4.9-10.9,11.4c0,5.1,3.5,8.5,9.3,8.5c2.9,0,5.6-0.9,7.5-2.5c0.2-0.2,0.2-0.4,0.1-0.6
		L44,24.1c-0.2-0.3-0.5-0.3-0.7-0.1c-1.4,1.2-3.4,1.9-5.6,1.9c-3.5,0-5.4-1.4-5.9-3.8c-0.1-0.3,0.1-0.5,0.4-0.5l15.2-2.8
		c0.2-0.1,0.4-0.2,0.4-0.4c0-0.2,0-0.4,0-0.6C47.7,12.2,44.2,9.1,39.1,9.1z M44.1,16.8L32.3,19c-0.3,0.1-0.6-0.2-0.5-0.5
		c0.7-3.9,3.4-6.4,7.2-6.4c3,0,5.1,1.5,5.5,4.2C44.5,16.5,44.3,16.7,44.1,16.8z"/>
</g>
</svg>
