<?xml version="1.0" encoding="utf-8"?>
<!-- Generator: Adobe Illustrator 23.0.2, SVG Export Plug-In . SVG Version: 6.00 Build 0)  -->
<svg version="1.1" id="图层_1" xmlns="http://www.w3.org/2000/svg" xmlns:xlink="http://www.w3.org/1999/xlink" x="0px" y="0px"
	 viewBox="0 0 20 20" style="enable-background:new 0 0 20 20;" xml:space="preserve">
<style type="text/css">
	.st0{fill:#8E8E8E;stroke:#8E8E8E;stroke-width:0.1487;stroke-linecap:round;stroke-linejoin:round;}
	.st1{fill:#8D8D8D;stroke:#8D8D8D;stroke-width:0.1487;stroke-linecap:round;stroke-linejoin:round;}
	.st2{fill:#C4C4C4;stroke:#C4C4C4;stroke-width:0.1487;stroke-linecap:round;stroke-linejoin:round;}
	.st3{fill:#313131;stroke:#313131;stroke-width:0.1487;stroke-linecap:round;stroke-linejoin:round;}
	.st4{fill:#7B7B7B;stroke:#7B7B7B;stroke-width:0.1487;stroke-linecap:round;stroke-linejoin:round;}
	.st5{fill:#9B9B9B;stroke:#9B9B9B;stroke-width:0.1487;stroke-linecap:round;stroke-linejoin:round;}
	.st6{fill:#B0B0B0;stroke:#B0B0B0;stroke-width:0.1487;stroke-linecap:round;stroke-linejoin:round;}
	.st7{fill:#161616;stroke:#161616;stroke-width:0.1487;stroke-linecap:round;stroke-linejoin:round;}
	.st8{fill:#4B4B4B;stroke:#4B4B4B;stroke-width:0.1487;stroke-linecap:round;stroke-linejoin:round;}
</style>
<g>
	<path class="st0" d="M19.011,0.751l-7.813,5.781l1.453-3.407L19.011,0.751z"/>
	<path class="st1" d="M0.989,0.751l7.743,5.835L7.349,3.125L0.989,0.751z"/>
	<path class="st1" d="M16.197,14.155l-2.079,3.176l4.451,1.225l1.275-4.332L16.197,14.155z"/>
	<path class="st1" d="M0.163,14.224l1.267,4.332l4.443-1.225l-2.071-3.176L0.163,14.224z"/>
	<path class="st1" d="M5.633,8.79l-1.237,1.865l4.405,0.201L8.655,6.115L5.633,8.79z"/>
	<path class="st1" d="M14.366,8.79l-3.068-2.729l-0.101,4.795l4.405-0.201L14.366,8.79z"/>
	<path class="st1" d="M5.873,17.331l2.666-1.287l-2.295-1.788L5.873,17.331z"/>
	<path class="st1" d="M11.461,16.043l2.659,1.287l-0.363-3.075L11.461,16.043z"/>
	<path class="st2" d="M14.119,17.331l-2.659-1.287l0.217,1.727l-0.023,0.732L14.119,17.331z"/>
	<path class="st2" d="M5.873,17.331l2.473,1.172l-0.015-0.732l0.209-1.727L5.873,17.331z"/>
	<path class="st3" d="M8.393,13.114l-2.21-0.647l1.561-0.717L8.393,13.114z"/>
	<path class="st3" d="M11.607,13.114l0.649-1.365l1.569,0.717L11.607,13.114z"/>
	<path class="st4" d="M5.873,17.331l0.387-3.176l-2.457,0.069L5.873,17.331z"/>
	<path class="st4" d="M13.74,14.155l0.379,3.176l2.079-3.107L13.74,14.155z"/>
	<path class="st4" d="M15.603,10.655l-4.405,0.201l0.41,2.259l0.649-1.365l1.569,0.717L15.603,10.655z"/>
	<path class="st4" d="M6.183,12.467l1.561-0.717l0.649,1.365l0.409-2.259l-4.405-0.201L6.183,12.467z"/>
	<path class="st1" d="M4.397,10.655l1.847,3.599l-0.062-1.788L4.397,10.655z"/>
	<path class="st1" d="M13.825,12.467l-0.069,1.788l1.847-3.599L13.825,12.467z"/>
	<path class="st1" d="M8.802,10.855l-0.41,2.259l0.517,2.667l0.116-3.515L8.802,10.855z"/>
	<path class="st1" d="M11.198,10.855l-0.217,1.403l0.108,3.523l0.517-2.667L11.198,10.855z"/>
	<path class="st5" d="M11.607,13.114l-0.517,2.667l0.371,0.263l2.295-1.788l0.069-1.788L11.607,13.114z"/>
	<path class="st5" d="M6.183,12.467l0.062,1.788l2.295,1.788l0.371-0.263l-0.517-2.667L6.183,12.467z"/>
	<path class="st6" d="M11.654,18.503l0.023-0.732l-0.201-0.169H8.524l-0.193,0.169l0.015,0.732l-2.473-1.172l0.865,0.709l1.754,1.21
		h3.006l1.762-1.21l0.858-0.709L11.654,18.503z"/>
	<path class="st7" d="M11.461,16.043L11.09,15.78H8.91l-0.371,0.263L8.331,17.77l0.193-0.169h2.952l0.201,0.169L11.461,16.043z"/>
	<path class="st8" d="M19.343,6.909L20,3.718L19.011,0.75l-7.55,5.589l2.906,2.451l4.103,1.195l0.904-1.056l-0.395-0.285
		l0.626-0.571l-0.479-0.37l0.626-0.478L19.343,6.909z"/>
	<path class="st8" d="M0,3.718l0.665,3.191L0.239,7.225l0.633,0.478l-0.477,0.37l0.626,0.571L0.626,8.929L1.53,9.985L5.633,8.79
		l2.906-2.451L0.989,0.75L0,3.718z"/>
	<path class="st5" d="M18.47,9.985L14.367,8.79l1.237,1.865l-1.847,3.599l2.442-0.031h3.648L18.47,9.985z"/>
	<path class="st5" d="M5.633,8.79L1.53,9.985l-1.367,4.239h3.64l2.442,0.031l-1.847-3.599L5.633,8.79z"/>
	<path class="st5" d="M11.198,10.856l0.263-4.517l1.19-3.214H7.349l1.19,3.214l0.263,4.517l0.101,1.418l0.008,3.507h2.179
		l0.008-3.507L11.198,10.856z"/>
</g>
</svg>
