<svg xmlns="http://www.w3.org/2000/svg" width="20" height="20" viewBox="0 0 20 20">
  <defs>
    <style>
      .cls-1 {
        fill: #fff;
        fill-rule: evenodd;
        opacity: 0.2;
      }
    </style>
  </defs>
  <path id="Favorite_icon_置灰" class="cls-1" d="M399.726,781.005l-4.257,4.091,1.154,5.783a1.056,1.056,0,0,1-.354.976,0.8,0.8,0,0,1-.888,0L390,788.993l-5.387,2.86a0.8,0.8,0,0,1-.889,0,1.059,1.059,0,0,1-.354-0.977l1.154-5.783L380.263,781a1.606,1.606,0,0,1-.266-1.069,0.834,0.834,0,0,1,.708-0.71l5.855-1.156,2.661-5.515a0.825,0.825,0,0,1,1.545,0l2.661,5.515,5.855,1.156a0.833,0.833,0,0,1,.708.71A1.609,1.609,0,0,1,399.726,781.005Z" transform="translate(-380 -772)"/>
</svg>
