<svg xmlns="http://www.w3.org/2000/svg" width="39.969" height="35.969" viewBox="0 0 39.969 35.969">
  <defs>
    <style>
      .cls-1 {
        fill: #999;
        fill-rule: evenodd;
      }
    </style>
  </defs>
  <path id="empty" class="cls-1" d="M428.874,697.023a4.255,4.255,0,0,1-2.74.977H393.717a4.242,4.242,0,0,1-2.6-.987,3.878,3.878,0,0,1-1.085-2.47v-7.2a7.544,7.544,0,0,1,.294-2.386,8.883,8.883,0,0,1,.814-1.937l3.528-6.328c0.017-.032.036-0.063,0.056-0.093a5.67,5.67,0,0,1,1.511-1.529,4.354,4.354,0,0,1,2.181-.581H420.7a0.619,0.619,0,0,1,.086,0,5.694,5.694,0,0,1,2.263.629,6.467,6.467,0,0,1,1.662,1.524,1.257,1.257,0,0,1,.075.105l4.188,6.734A8.157,8.157,0,0,1,430,687.207v7.185A3.578,3.578,0,0,1,428.874,697.023Zm-36.168-2.6,0,0.019a1.281,1.281,0,0,0,.227.579l0.019,0.019,0.019,0.018a2.048,2.048,0,0,0,.808.228h32.355a1.726,1.726,0,0,0,.951-0.286,0.848,0.848,0,0,0,.231-0.518v-7.176c0-.021-0.008-0.041-0.009-0.062l-11.025.007-0.06.234a6.484,6.484,0,0,1-12.591,0l-0.059-.234-10.866-.007c0,0.019,0,.037,0,0.056v7.123Zm29.851-16.155-0.013-.017a3.93,3.93,0,0,0-.827-0.771,3.226,3.226,0,0,0-1.057-.27l-0.028,0H398.418a1.783,1.783,0,0,0-.77.171,3.1,3.1,0,0,0-.673.69l-0.01.016-3.5,6.29-0.038.062a0.275,0.275,0,0,1-.017.029v0c-0.01.019-.014,0.041-0.024,0.06l11.4,0.008a1.352,1.352,0,0,1,1.339,1.358,3.813,3.813,0,0,0,7.625,0,1.352,1.352,0,0,1,1.339-1.358l11.375-.006Zm-2.656-6.322a1.326,1.326,0,0,1-1.038.5h0v0a1.351,1.351,0,0,1-1.337-1.362,1.373,1.373,0,0,1,.3-0.851l3.06-3.829a1.322,1.322,0,0,1,1.877-.2l0.006,0a1.371,1.371,0,0,1,.2,1.91Zm-10.017.556a1.349,1.349,0,0,1-1.34-1.359v-7.809a1.339,1.339,0,0,1,2.678,0v7.809A1.35,1.35,0,0,1,409.884,672.5Zm-8.823-.156h0a1.327,1.327,0,0,1-1.047-.511L397,668.008a1.372,1.372,0,0,1,.3-1.9,1.328,1.328,0,0,1,1.8.206l3.007,3.827a1.373,1.373,0,0,1-.217,1.91A1.331,1.331,0,0,1,401.061,672.346Z" transform="translate(-390.031 -662.031)"/>
</svg>
