<?xml version="1.0" encoding="utf-8"?>
<!-- Generator: Adobe Illustrator 23.0.2, SVG Export Plug-In . SVG Version: 6.00 Build 0)  -->
<svg version="1.1" id="图层_1" xmlns="http://www.w3.org/2000/svg" xmlns:xlink="http://www.w3.org/1999/xlink" x="0px" y="0px"
	 viewBox="0 0 60 40" style="enable-background:new 0 0 60 40;" xml:space="preserve">
<style type="text/css">
	.st0{fill:#FFFFFF;}
	.st1{fill:#BD0A30;}
	.st2{fill:#3C3B6E;}
</style>
<g>
	<path class="st0" d="M0,0h60v40H0V0z"/>
	<path class="st1" d="M0,0h60v3.04H0C0,3.04,0,0,0,0z M0,6.1h60v3.04H0C0,9.14,0,6.1,0,6.1z M0,12.2h60v3.04H0
		C0,15.24,0,12.2,0,12.2z M0,18.28h60v3.04H0C0,21.32,0,18.28,0,18.28z M0,24.38h60v3.04H0C0,27.42,0,24.38,0,24.38z M0,30.48h60
		v3.04H0C0,33.52,0,30.48,0,30.48z M0,36.58h60V40H0C0,40,0,36.58,0,36.58z"/>
	<g>
		<path class="st2" d="M0,0h29.92v21.34H0V0z"/>
		<path class="st0" d="M2.94,2.28L3.6,1.72H2.74L2.46,0.96L2.18,1.72H1.32L2.08,2.3L1.8,3.14l0.66-0.58l0.76,0.58
			C3.22,3.14,2.94,2.28,2.94,2.28z M2.94,6.58L3.6,6H2.74L2.46,5.14L2.18,6H1.32l0.76,0.58L1.8,7.42l0.66-0.58l0.76,0.58L2.94,6.58z
			 M2.94,10.86l0.66-0.58H2.74L2.46,9.42l-0.28,0.86H1.32l0.76,0.58L1.8,11.62l0.66-0.48l0.76,0.48L2.94,10.86z M2.94,15.04
			l0.66-0.48H2.74L2.46,13.7l-0.28,0.86H1.32l0.76,0.48L1.8,15.9l0.66-0.48l0.76,0.48L2.94,15.04z M2.94,19.34l0.66-0.48H2.74
			L2.46,18l-0.28,0.86H1.32l0.76,0.48L1.8,20.2l0.66-0.48l0.76,0.48L2.94,19.34z M5.42,4.38L6.18,3.9H5.22L4.94,3.04L4.74,3.9H3.8
			l0.76,0.48L4.28,5.24l0.66-0.48L5.7,5.24C5.7,5.24,5.42,4.38,5.42,4.38z M5.42,8.66l0.76-0.48H5.22L4.94,7.32l-0.2,0.86H3.8
			l0.76,0.48L4.28,9.52l0.66-0.58L5.7,9.52C5.7,9.52,5.42,8.66,5.42,8.66z M5.42,12.96l0.76-0.58H5.22l-0.28-0.76l-0.2,0.76H3.8
			l0.76,0.58L4.28,13.8l0.66-0.58L5.7,13.8C5.7,13.8,5.42,12.96,5.42,12.96z M5.42,17.24l0.76-0.58H5.22L4.94,15.8l-0.2,0.86H3.8
			l0.76,0.58L4.28,18.1l0.66-0.58L5.7,18.1C5.7,18.1,5.42,17.24,5.42,17.24z M6.74,3.14L7.5,2.56l0.66,0.58L7.88,2.28L8.64,1.7H7.68
			L7.5,0.94L7.22,1.7H6.36l0.66,0.58L6.74,3.14z M7.5,5.14L7.22,6H6.36l0.66,0.58L6.74,7.44L7.5,6.86l0.66,0.58L7.88,6.58L8.64,6
			H7.68C7.7,6,7.5,5.14,7.5,5.14z M7.5,9.42l-0.28,0.86H6.36l0.66,0.58l-0.28,0.76l0.76-0.48l0.66,0.48l-0.28-0.76l0.76-0.58H7.68
			C7.7,10.28,7.5,9.42,7.5,9.42z M7.7,14.58l-0.18-0.86l-0.28,0.86H6.38l0.66,0.48l-0.28,0.86l0.76-0.48l0.66,0.48L7.9,15.06
			l0.76-0.48C8.64,14.58,7.7,14.58,7.7,14.58z M7.88,19.34l0.76-0.48H7.68L7.5,18l-0.28,0.86H6.36l0.66,0.48L6.74,20.2l0.76-0.48
			l0.66,0.48C8.16,20.2,7.88,19.34,7.88,19.34z M9.5,4.38L9.22,5.24l0.76-0.48l0.66,0.48l-0.28-0.86l0.76-0.48h-0.86L9.98,3.04
			L9.7,3.9H8.84C8.84,3.9,9.5,4.38,9.5,4.38z M9.98,7.34L9.68,8.2H8.82l0.66,0.48L9.2,9.54l0.76-0.58l0.66,0.58l-0.28-0.86L11.1,8.2
			h-0.86C10.26,8.2,9.98,7.34,9.98,7.34z M9.98,11.62L9.7,12.38H8.84l0.66,0.58L9.22,13.8l0.76-0.58l0.66,0.58l-0.28-0.86l0.76-0.58
			h-0.86C10.26,12.38,9.98,11.62,9.98,11.62z M10.26,16.66L9.98,15.8L9.7,16.66H8.84l0.66,0.58L9.22,18.1l0.76-0.58l0.66,0.58
			l-0.28-0.86l0.76-0.58C11.12,16.66,10.26,16.66,10.26,16.66z M12.44,0.96l-0.28,0.76H11.3l0.66,0.58l-0.2,0.86l0.66-0.58
			l0.76,0.58L12.9,2.3l0.66-0.58H12.7C12.72,1.72,12.44,0.96,12.44,0.96z M12.44,5.14L12.16,6H11.3l0.66,0.58l-0.2,0.86l0.66-0.58
			l0.76,0.58L12.9,6.58L13.56,6H12.7C12.72,6,12.44,5.14,12.44,5.14z M12.44,9.42l-0.28,0.86H11.3l0.66,0.58l-0.2,0.76l0.66-0.48
			l0.76,0.48l-0.28-0.76l0.66-0.58H12.7C12.72,10.28,12.44,9.42,12.44,9.42z M12.44,13.72l-0.28,0.86H11.3l0.66,0.48l-0.2,0.86
			l0.66-0.48l0.76,0.48l-0.28-0.86l0.66-0.48H12.7C12.72,14.58,12.44,13.72,12.44,13.72z M12.72,18.86L12.44,18l-0.28,0.86H11.3
			l0.66,0.48l-0.2,0.86l0.66-0.48l0.78,0.48l-0.28-0.86l0.66-0.48C13.58,18.86,12.72,18.86,12.72,18.86z M14.9,3.04L14.62,3.9h-0.86
			l0.76,0.48l-0.28,0.86l0.66-0.48l0.76,0.48l-0.28-0.86l0.66-0.48H15.2L14.9,3.04z M14.9,7.34L14.62,8.2h-0.86l0.76,0.48
			l-0.28,0.86l0.66-0.58l0.76,0.58l-0.28-0.86l0.66-0.48H15.2L14.9,7.34z M14.9,11.62l-0.28,0.76h-0.86l0.76,0.58l-0.28,0.84
			l0.66-0.58l0.76,0.58l-0.28-0.86l0.66-0.58H15.2L14.9,11.62z M15.2,16.66l-0.3-0.86l-0.28,0.86h-0.86l0.76,0.58l-0.28,0.86
			l0.66-0.58l0.76,0.58l-0.28-0.86l0.66-0.58H15.2z M17.38,0.96l-0.2,0.76h-0.96l0.76,0.58L16.7,3.16l0.66-0.58l0.76,0.58L17.84,2.3
			l0.76-0.58h-0.96C17.66,1.72,17.38,0.96,17.38,0.96z M17.38,5.14L17.18,6h-0.96l0.76,0.58L16.7,7.44l0.66-0.58l0.76,0.58
			l-0.28-0.86L18.6,6h-0.96C17.66,6,17.38,5.14,17.38,5.14z M17.38,9.42l-0.2,0.86h-0.96l0.76,0.58l-0.28,0.76l0.66-0.48l0.76,0.48
			l-0.28-0.76l0.76-0.58h-0.96C17.66,10.28,17.38,9.42,17.38,9.42z M17.38,13.72l-0.2,0.86h-0.96l0.76,0.48l-0.28,0.86l0.66-0.48
			l0.76,0.48l-0.28-0.86l0.76-0.48h-0.96C17.66,14.58,17.38,13.72,17.38,13.72z M17.66,18.86L17.38,18l-0.2,0.86h-0.96l0.76,0.48
			L16.7,20.2l0.66-0.48l0.76,0.48l-0.28-0.86l0.76-0.48C18.62,18.86,17.66,18.86,17.66,18.86z M19.94,3.04L19.66,3.9H18.8l0.66,0.48
			l-0.28,0.86l0.76-0.48l0.66,0.48l-0.28-0.86l0.76-0.48h-0.86C20.22,3.9,19.94,3.04,19.94,3.04z M19.94,7.34L19.66,8.2H18.8
			l0.66,0.48l-0.28,0.86l0.76-0.58l0.66,0.58l-0.28-0.86l0.76-0.48h-0.86C20.22,8.2,19.94,7.34,19.94,7.34z M19.94,11.62l-0.28,0.76
			H18.8l0.66,0.58l-0.28,0.84l0.76-0.58l0.66,0.58l-0.28-0.86l0.76-0.58h-0.86C20.22,12.38,19.94,11.62,19.94,11.62z M20.22,16.66
			l-0.28-0.86l-0.28,0.86H18.8l0.66,0.58l-0.28,0.86l0.76-0.58l0.66,0.58l-0.28-0.86l0.76-0.58H20.22z M22.42,0.96l-0.28,0.76h-0.86
			l0.66,0.58l-0.28,0.86l0.76-0.58l0.66,0.58l-0.2-0.86l0.66-0.58h-0.86L22.42,0.96L22.42,0.96z M22.42,5.14L22.14,6h-0.86
			l0.66,0.58l-0.28,0.86l0.76-0.58l0.66,0.58l-0.2-0.86L23.54,6h-0.86L22.42,5.14L22.42,5.14z M22.42,9.42l-0.28,0.86h-0.86
			l0.66,0.58l-0.28,0.76l0.76-0.48l0.66,0.48l-0.2-0.76l0.66-0.58h-0.86L22.42,9.42L22.42,9.42z M22.42,13.72l-0.28,0.86h-0.86
			l0.66,0.48l-0.28,0.86l0.76-0.48l0.66,0.48l-0.2-0.86l0.66-0.48h-0.86L22.42,13.72L22.42,13.72z M22.7,18.86L22.42,18l-0.28,0.86
			h-0.86l0.66,0.48l-0.28,0.86l0.76-0.48l0.66,0.48l-0.2-0.86l0.66-0.48H22.7L22.7,18.86z M24.88,3.04L24.6,3.9h-0.86l0.66,0.48
			l-0.2,0.86l0.66-0.48l0.76,0.48l-0.28-0.86L26,3.9h-0.86L24.88,3.04L24.88,3.04z M24.88,7.34L24.6,8.2h-0.86l0.66,0.48l-0.2,0.86
			l0.66-0.58l0.76,0.58l-0.28-0.86L26,8.2h-0.86L24.88,7.34L24.88,7.34z M24.88,11.62l-0.28,0.76h-0.86l0.66,0.58l-0.2,0.86
			l0.66-0.58l0.76,0.58l-0.28-0.86L26,12.38h-0.86L24.88,11.62L24.88,11.62z M25.16,16.66l-0.28-0.86l-0.28,0.86h-0.86l0.66,0.58
			l-0.2,0.86l0.66-0.58l0.76,0.58l-0.28-0.86L26,16.66H25.16L25.16,16.66z M26.96,2.28l-0.28,0.86l0.66-0.58l0.76,0.58l-0.28-0.86
			l0.66-0.58h-0.86l-0.28-0.76L27.06,1.7H26.2L26.96,2.28L26.96,2.28z M27.34,5.14L27.06,6H26.2l0.76,0.58l-0.28,0.86l0.66-0.58
			l0.76,0.58l-0.28-0.86L28.48,6h-0.86L27.34,5.14L27.34,5.14z M27.34,9.42l-0.28,0.86H26.2l0.76,0.58l-0.28,0.76l0.66-0.48
			l0.76,0.48l-0.28-0.76l0.66-0.58h-0.86L27.34,9.42L27.34,9.42z M27.34,13.72l-0.28,0.86H26.2l0.76,0.48l-0.28,0.86l0.66-0.48
			l0.76,0.48l-0.28-0.86l0.66-0.48h-0.86L27.34,13.72L27.34,13.72z M27.64,18.86L27.36,18l-0.28,0.86H26.2l0.76,0.48l-0.28,0.86
			l0.66-0.48l0.76,0.48l-0.28-0.86l0.66-0.48H27.64L27.64,18.86z"/>
	</g>
</g>
</svg>
