<?xml version="1.0" encoding="utf-8"?>
<!-- Generator: Adobe Illustrator 23.0.2, SVG Export Plug-In . SVG Version: 6.00 Build 0)  -->
<svg version="1.1" id="图层_1" xmlns="http://www.w3.org/2000/svg" xmlns:xlink="http://www.w3.org/1999/xlink" x="0px" y="0px"
	 viewBox="0 0 60 40" style="enable-background:new 0 0 60 40;" xml:space="preserve">
<style type="text/css">
	.st0{fill:#D64B24;}
	.st1{fill:#FBDC00;}
</style>
<path class="st0" d="M0,0h60v40H0V0z"/>
<path class="st1" d="M10.12,4.62L11.4,8.5h4.08l-3.3,2.36l1.22,3.88l-3.3-2.4l-3.3,2.4l1.28-3.88L4.82,8.5H8.9L10.12,4.62z
	 M20.74,2.56L20.7,3.94l1.22,0.5L20.6,4.78L20.56,6.1L19.8,4.96l-1.28,0.3l0.84-1.04l-0.68-1.14l1.22,0.54L20.74,2.56z M25.3,6.92
	L24.72,8.1l0.94,0.94l-1.32-0.2l-0.58,1.18l-0.2-1.32l-1.32-0.2l1.18-0.58l-0.2-1.32l0.94,0.94L25.3,6.92z M23.94,12.34l0.44,1.28
	h1.32l-1.08,0.78l0.4,1.28l-1.08-0.78l-1.08,0.78l0.44-1.28l-1.08-0.78h1.32L23.94,12.34z M20.74,16.46l-0.1,1.32l1.28,0.5
	l-1.32,0.34l-0.1,1.32l-0.7-1.12l-1.32,0.34l0.88-1.04L18.62,17l1.28,0.5L20.74,16.46z"/>
</svg>
